<?xml version="1.0" encoding="UTF-8"?>
<svg width="75px" height="75px" viewBox="0 0 75 75" version="1.1" xmlns="http://www.w3.org/2000/svg" xmlns:xlink="http://www.w3.org/1999/xlink">
    <title>Group 5</title>
    <defs>
        <circle id="path-1" cx="37.5" cy="37.5" r="37.5"></circle>
        <linearGradient x1="50%" y1="58.0688819%" x2="45.9060112%" y2="2.42365615%" id="linearGradient-3">
            <stop stop-color="#FDC485" offset="0%"></stop>
            <stop stop-color="#A75700" offset="100%"></stop>
        </linearGradient>
    </defs>
    <g id="Page-1" stroke="none" stroke-width="1" fill="none" fill-rule="evenodd">
        <g id="Desktop-HD" transform="translate(-149.000000, -1704.000000)">
            <g id="Group-5" transform="translate(149.000000, 1704.000000)">
                <mask id="mask-2" fill="white">
                    <use xlink:href="#path-1"></use>
                </mask>
                <use id="Mask" fill="#111111" xlink:href="#path-1"></use>
                <g mask="url(#mask-2)">
                    <g transform="translate(5.000000, 10.000000)">
                        <path d="M54.2592011,14.7744003 C54.2592011,14.7744003 59.8176012,36.2880007 51.840001,50.860801 C51.840001,50.860801 42.8256009,50.169601 41.0688008,48.441601 L45.2783503,58.1472012 L50.083201,62.6688012 L48.585601,101.520002 L15.3792003,62.3232012 L33.7824007,14.7744003 L54.2592011,14.7744003 Z" id="Path" stroke="none" fill="#FDC485" fill-rule="nonzero"></path>
                        <polygon id="Rectangle" stroke="none" fill="url(#linearGradient-3)" fill-rule="evenodd" points="35.7612364 45.1388993 41.0688008 48.441601 45.2783503 58.1472012 15.3792003 59.7874394"></polygon>
                        <line x1="48.182401" y1="29.0016006" x2="51.984001" y2="29.6928006" id="Path" stroke="#0A2A3C" stroke-width="0.600000024" fill="none"></line>
                        <path d="M54.0864011,8.32320017 C50.515201,3.85920008 45.4464009,0.0864000017 39.7152008,0.0284715284 C35.5968007,-2.45636844e-14 31.7088006,1.87200004 27.7344006,2.90880006 C25.2864005,3.54240007 22.7232005,3.85920008 20.1888004,3.83040008 C19.0656004,3.83040008 17.9136004,3.74400007 16.9056003,4.23360008 C16.0704003,4.60800009 15.4656003,5.32800011 14.8896003,6.01920012 C3.65760007,19.5840004 -0.259200005,37.9872008 0.172800003,55.5840011 C0.374400007,63.3888013 1.64160003,71.8848014 7.28640014,77.2992015 C9.44640019,79.3728016 12.8160003,80.8992016 15.4080003,79.3728016 C17.3088003,78.2496016 18.0576004,75.8592015 18.2880004,73.6704015 C18.4896004,71.6544014 18.6336004,68.7456014 17.6256004,66.9024013 C16.7328003,65.2608013 15.9840003,64.2240013 17.1936003,62.2944012 C17.4528003,61.8912012 17.7696004,61.5168012 18.0864004,61.1712012 C22.4928004,58.1472012 26.6400005,54.7776011 30.4704006,51.062401 C28.4832006,54.0288011 26.1216005,56.7360011 23.4432005,59.1264012 C26.6688005,56.2176011 29.7216006,53.5392011 32.2272006,49.939201 C33.4656007,48.153601 34.5600007,46.2816009 35.4816007,44.3232009 C35.8848007,43.4592009 36.9792007,41.6160008 37.3536007,40.1472008 C37.7280007,39.2544008 38.0448008,38.3328008 38.3328008,37.3824007 C36.6048007,37.9584008 34.3584007,36.3168007 33.6384007,34.8192007 C32.7744007,33.0624007 33.2928007,30.7008006 34.8768007,29.5488006 C36.4608007,28.3968006 38.9376008,28.6560006 40.1472008,30.1824006 C40.3200008,30.3840006 41.9328008,25.4016005 41.9328008,24.7968005 C41.9904008,22.6656005 41.1840008,21.0240004 40.4352008,19.1520004 C42.6816008,18.9792004 45.4752009,20.2752004 47.836801,20.4192004 C50.486401,20.5920004 53.1360011,20.4192004 55.7280011,19.8720004 C55.7856011,21.1968004 55.8432011,22.4928004 55.9008011,23.8176005 C56.6784011,22.3488004 57.1392011,20.6784004 57.2544011,19.0080004 C57.4272011,19.4976004 57.5712011,19.9872004 57.7440011,20.4768004 C59.0112012,16.2432003 56.8224011,11.7504002 54.0864011,8.32320017 Z" id="Path" stroke="none" fill="#F26C5D" fill-rule="nonzero"></path>
                        <g id="Clipped" stroke="none" stroke-width="1" fill="none" fill-rule="evenodd"></g>
                    </g>
                </g>
            </g>
        </g>
    </g>
</svg>