<?xml version="1.0" encoding="UTF-8"?>
<svg width="75px" height="75px" viewBox="0 0 75 75" version="1.1" xmlns="http://www.w3.org/2000/svg" xmlns:xlink="http://www.w3.org/1999/xlink">
    <title>Group 4</title>
    <defs>
        <circle id="path-1" cx="37.5" cy="37.5" r="37.5"></circle>
    </defs>
    <g id="Page-1" stroke="none" stroke-width="1" fill="none" fill-rule="evenodd">
        <g id="Desktop-HD" transform="translate(-1215.000000, -2417.000000)">
            <g id="Group-4" transform="translate(1215.000000, 2417.000000)">
                <mask id="mask-2" fill="white">
                    <use xlink:href="#path-1"></use>
                </mask>
                <use id="Mask" fill="#F26C5D" xlink:href="#path-1"></use>
                <g mask="url(#mask-2)" id="Path">
                    <g transform="translate(38.500000, 46.000000) scale(-1, 1) rotate(-20.000000) translate(-38.500000, -46.000000) translate(9.000000, 10.000000)">
                        <path d="M47.3411202,13.3811183 C47.3411202,13.3811183 47.5253952,25.0942303 51.8742851,36.4737409 C51.8742851,36.4737409 48.5573352,38.9201503 46.4934552,38.7348163 C44.3927202,38.5494822 45.6089352,38.7348163 45.6089352,38.7348163 L43.6924752,55.6743484 L35.6949403,55.6743484 L34.6630004,61.975706 L31.7146004,68.0917297 C31.7146004,68.0917297 13.2871007,70.2045378 6.32150575,62.4946414 L8.75393571,59.8999647 C13.0291157,55.3407471 15.5721106,49.4471243 15.9038056,43.1828334 L16.2355006,37.2892107 L22.1323005,15.2344588 L36.9111553,10.526974 L46.4934552,12.9733834 L47.3411202,13.3811183 Z" stroke="none" fill="#FDC485" fill-rule="nonzero"></path>
                        <path d="M26.8497405,22.796088 C26.8497405,22.796088 38.8644703,20.9427476 39.6384253,14.9379244 C39.6384253,14.9379244 53.7170351,21.239282 57.36568,13.640586 C61.014325,6.04189 57.36568,8.72901704e-14 57.36568,8.72901704e-14 C57.36568,8.72901704e-14 42.7711002,5.78242233 40.6703653,6.82029301 C38.5696303,7.85816368 24.4910205,-2.37227583 20.0684206,1.55680601 C15.6458206,5.48588785 16.4197756,10.5640408 16.4197756,10.5640408 C16.4197756,10.5640408 11.9971757,3.66961417 8.05369072,6.82029301 C4.11020578,9.97097184 -3.96103911,18.0886032 2.3043108,29.6534479 C8.56966072,41.1812257 14.3190406,45.6663097 17.4517156,43.0345662 L21.6163305,39.4761525 L19.6630156,36.9556094 C18.1888156,35.0281353 17.9676856,32.3963918 19.1839006,30.2835836 L19.5155956,29.6905147 C20.7686655,27.4665061 23.3116605,26.2803682 25.7809455,26.7622367 L25.7809455,26.7622367 C25.7809455,26.7622367 26.0389305,45.9257774 23.1642405,50.3737946 C23.1642405,50.3737946 27.3288555,60.8637017 43.5082002,57.9724906 C43.5082002,57.9724906 47.9676552,57.9354238 45.3509502,40.8846912 L34.1101754,38.0305469 L30.9775004,28.059575 L26.8497405,22.796088 Z" stroke="none" fill="#0A2A3C" fill-rule="nonzero"></path>
                        <path d="M37.9062403,27.8001074 C37.9062403,27.8001074 39.3435853,25.0571634 40.8914953,25.4278315" stroke="#0A2A3C" stroke-width="0.73709999" fill="none"></path>
                        <path d="M12.6237107,53.9692751 L33.9627554,63.940247 C34.4418704,64.1626478 34.6998554,64.7557168 34.5155804,65.2746521 L32.5991204,71.0570744 C32.4148454,71.6501434 31.7146004,71.9466779 31.1249204,71.6872102 L8.45909572,61.2714366 C7.86941573,61.011969 7.64828573,60.2706328 7.97998072,59.7146306 L11.2232207,54.37701 C11.5549157,53.8951415 12.1445957,53.7098074 12.6237107,53.9692751 Z" stroke="none" fill="#0A2A3C" fill-rule="nonzero"></path>
                    </g>
                </g>
            </g>
        </g>
    </g>
</svg>