<svg width="28" height="28" viewBox="0 0 28 28" fill="none" xmlns="http://www.w3.org/2000/svg">
<path fill-rule="evenodd" clip-rule="evenodd" d="M20.7363 22.5363C21.2333 23.0333 22.0392 23.0333 22.5362 22.5363C23.0332 22.0393 23.0332 21.2335 22.5362 20.7365L15.7998 14L22.5362 7.26364C23.0332 6.7666 23.0332 5.96076 22.5362 5.46373C22.0392 4.9667 21.2333 4.9667 20.7363 5.46373L13.9999 12.2001L7.26351 5.46372C6.76647 4.96668 5.96063 4.96668 5.46359 5.46372C4.96656 5.96075 4.96656 6.76659 5.46359 7.26363L12.2 14L5.46359 20.7365C4.96656 21.2335 4.96656 22.0393 5.46359 22.5363C5.96063 23.0335 6.76647 23.0335 7.26351 22.5363L13.9999 15.7999L20.7363 22.5363Z" fill="black"/>
</svg>
