<svg width="22" height="22" viewBox="0 0 22 22" fill="none" xmlns="http://www.w3.org/2000/svg">
<path fill-rule="evenodd" clip-rule="evenodd" d="M15.7071 14.2929C16.0976 14.6834 16.0976 15.3166 15.7071 15.7071L11.7077 19.7065L11.7071 19.7071C11.6112 19.803 11.5007 19.8753 11.3828 19.9241C11.2649 19.973 11.1356 20 11 20C10.865 20 10.7362 19.9732 10.6186 19.9247C10.5602 19.9006 10.5037 19.8708 10.4498 19.8352C10.3943 19.7986 10.3417 19.7559 10.2929 19.7071L10.2923 19.7065L6.29289 15.7071C5.90237 15.3166 5.90237 14.6834 6.29289 14.2929C6.68342 13.9024 7.31658 13.9024 7.70711 14.2929L10 16.5858V3C10 2.44771 10.4477 2 11 2C11.5523 2 12 2.44771 12 3V16.5858L14.2929 14.2929C14.6834 13.9024 15.3166 13.9024 15.7071 14.2929Z" fill="white"/>
</svg>
