<?xml version="1.0" encoding="UTF-8"?>
<svg width="176px" height="39px" viewBox="0 0 176 39" version="1.1" xmlns="http://www.w3.org/2000/svg" xmlns:xlink="http://www.w3.org/1999/xlink">
    <title>Group 6</title>
    <defs>
        <circle id="path-1" cx="20.7000008" cy="14.1000007" r="1.80000007"></circle>
    </defs>
    <g id="Page-1" stroke="none" stroke-width="1" fill="none" fill-rule="evenodd">
        <g id="Artboard-Copy-2" transform="translate(-306.000000, -185.000000)">
            <g id="Group-6" transform="translate(306.000000, 185.000000)">
                <g id="Oval-Copy-8">
                    <path d="M20.7000008,0 C32.0156395,0 41.2106394,8.78812382 41.3971142,20.3417956 L41.3996834,20.5537139 C41.3829893,23.624178 40.7098074,26.769768 39.461856,29.5877058 C38.0642882,32.5861559 35.9754926,35.1629129 33.4009926,37.1376372 C33.1253005,37.3230796 32.8431583,37.4981527 32.5547781,37.6625453 C29.0525169,39.6590265 29.8254358,36.6699063 27.720225,35.8672503 C25.6150142,35.0645942 25.650001,36.2570954 23.5804871,34.8921832 C22.6926865,34.3066496 22.324562,32.9984525 22.4761136,30.967592 L22.5000009,30.6861772 L18.9000008,30.6861772 C19.137287,32.4442447 18.791724,33.5847626 17.8633117,34.1077308 C16.4706932,34.8921832 16.2609738,33.8979914 14.5044176,34.8921832 C13.8656698,35.2537074 13.6681177,35.5867647 13.533692,35.9122058 L13.4699893,36.0743882 C13.2738371,36.5865673 13.0779727,37.0883651 11.3817147,37.6625453 C10.2576883,38.0430261 8.38622252,37.3714147 6.48157519,35.7437343 C4.57428595,33.9409138 3.00997184,31.7792661 1.89622812,29.36689 C0.89248533,27.0879653 0.1836886,24.3724093 0.0226761556,21.2544072 L1.40731871e-12,20.7000008 L0.00288740853,20.3507163 C0.189362246,9.07953417 9.38436212,0 20.7000008,0 Z M20.7000008,6.00000036 L19.73871,7.01902166 C17.5660177,9.32219517 16.2660704,12.311954 16.063474,15.4717252 L16.063474,15.4717252 L15.9254336,17.6246557 C15.817126,19.3138619 14.8029987,20.8121294 13.2750005,21.5403944 L13.2750005,21.5403944 L12.1901715,22.0574388 C11.3408971,22.4622147 10.8000004,23.3192041 10.8000004,24.2600073 L10.8000004,24.2600073 L10.8000004,24.8000011 C10.8000004,25.3522859 11.2477157,25.8000011 11.8000004,25.8000011 L11.8000004,25.8000011 L16.9990004,25.8000004 L17,27 C17,27.5522847 17.4477153,28 18,28 L18,28 L24,28 C24.5522847,28 25,27.5522847 25,27 L25,27 L24.9990004,25.8000004 L29.6000012,25.8000011 L29.7166223,25.7932734 C30.213961,25.7355083 30.6000012,25.312837 30.6000012,24.8000011 L30.6000012,24.8000011 L30.6000012,24.2600073 L30.5937194,24.0846789 C30.5311845,23.2138469 30.0060249,22.4369162 29.2098301,22.0574388 L29.2098301,22.0574388 L28.1250011,21.5403944 L27.9198597,21.4363671 C26.5066811,20.6755287 25.5779526,19.2370798 25.474568,17.6246557 L25.474568,17.6246557 L25.3365277,15.4717252 L25.3069632,15.0934018 C25.028539,12.0738718 23.7470762,9.23006823 21.6612917,7.01902166 L21.6612917,7.01902166 L20.7000008,6.00000036 Z" id="Combined-Shape" fill="#000000"></path>
                    <mask id="mask-2" fill="white">
                        <use xlink:href="#path-1"></use>
                    </mask>
                    <use id="Mask" fill="#000000" xlink:href="#path-1"></use>
                </g>
                <g id="Launch-&amp;-Scale-Copy" transform="translate(57.011364, 14.204545)" fill="#000000" fill-rule="nonzero">
                    <path d="M7.44886364,11.7954545 L7.44886364,9.76704545 L2.46022727,9.76704545 L2.46022727,0.159090909 L1.59872116e-13,0.159090909 L1.59872116e-13,11.7954545 L7.44886364,11.7954545 Z M11.5227273,11.9602273 C11.9545455,11.9602273 12.3352273,11.9024621 12.6647727,11.7869318 C12.9943182,11.6714015 13.2765152,11.5104167 13.5113636,11.3039773 C13.7462121,11.0975379 13.9337121,10.8579545 14.0738636,10.5852273 L14.0738636,10.5852273 L14.1420455,10.5852273 L14.1420455,11.7954545 L16.4375,11.7954545 L16.4375,5.90909091 C16.4375,5.39015152 16.3371212,4.94412879 16.1363636,4.57102273 C15.9356061,4.19791667 15.6619318,3.89204545 15.3153409,3.65340909 C14.96875,3.41477273 14.5729167,3.23863636 14.1278409,3.125 C13.6827652,3.01136364 13.217803,2.95454545 12.7329545,2.95454545 C12.0359848,2.95454545 11.4232955,3.05965909 10.8948864,3.26988636 C10.3664773,3.48011364 9.93560606,3.77935606 9.60227273,4.16761364 C9.26893939,4.55587121 9.04545455,5.01515152 8.93181818,5.54545455 L8.93181818,5.54545455 L11.1704545,5.72727273 C11.2537879,5.43939394 11.4242424,5.19981061 11.6818182,5.00852273 C11.9393939,4.81723485 12.2859848,4.72159091 12.7215909,4.72159091 C13.1344697,4.72159091 13.4535985,4.82007576 13.6789773,5.01704545 C13.9043561,5.21401515 14.0170455,5.49242424 14.0170455,5.85227273 L14.0170455,5.85227273 L14.0170455,5.88636364 C14.0170455,6.0719697 13.9469697,6.21212121 13.8068182,6.30681818 C13.6666667,6.40151515 13.4412879,6.47253788 13.1306818,6.51988636 C12.8200758,6.56723485 12.4109848,6.61742424 11.9034091,6.67045455 C11.4715909,6.71212121 11.0596591,6.78409091 10.6676136,6.88636364 C10.2755682,6.98863636 9.92613636,7.14015152 9.61931818,7.34090909 C9.3125,7.54166667 9.07007576,7.80681818 8.89204545,8.13636364 C8.71401515,8.46590909 8.625,8.87310606 8.625,9.35795455 C8.625,9.93371212 8.75094697,10.4138258 9.00284091,10.7982955 C9.25473485,11.1827652 9.59848485,11.4725379 10.0340909,11.6676136 C10.469697,11.8626894 10.9659091,11.9602273 11.5227273,11.9602273 Z M12.2159091,10.2897727 C11.844697,10.2897727 11.5388258,10.2035985 11.2982955,10.03125 C11.0577652,9.85890152 10.9375,9.60795455 10.9375,9.27840909 C10.9375,9.05113636 10.9962121,8.86079545 11.1136364,8.70738636 C11.2310606,8.55397727 11.3958333,8.43181818 11.6079545,8.34090909 C11.8200758,8.25 12.0681818,8.18371212 12.3522727,8.14204545 C12.4848485,8.12310606 12.6325758,8.10132576 12.7954545,8.07670455 C12.9583333,8.05208333 13.1212121,8.02367424 13.2840909,7.99147727 C13.4469697,7.9592803 13.59375,7.92329545 13.7244318,7.88352273 C13.8551136,7.84375 13.9583333,7.79924242 14.0340909,7.75 L14.0340909,7.75 L14.0340909,8.67613636 C14.0340909,8.98295455 13.9564394,9.25757576 13.8011364,9.5 C13.6458333,9.74242424 13.4318182,9.93465909 13.1590909,10.0767045 C12.8863636,10.21875 12.5719697,10.2897727 12.2159091,10.2897727 Z M21.2727273,11.9090909 C21.9280303,11.9090909 22.4839015,11.7537879 22.9403409,11.4431818 C23.3967803,11.1325758 23.7234848,10.7215909 23.9204545,10.2102273 L23.9204545,10.2102273 L24.0113636,10.2102273 L24.0113636,11.7954545 L26.3352273,11.7954545 L26.3352273,3.06818182 L23.9147727,3.06818182 L23.9147727,8.07954545 C23.9185606,8.46969697 23.8418561,8.79734848 23.6846591,9.0625 C23.5274621,9.32765152 23.3219697,9.52746212 23.0681818,9.66193182 C22.8143939,9.79640152 22.5416667,9.86363636 22.25,9.86363636 C21.7916667,9.86363636 21.4261364,9.71401515 21.1534091,9.41477273 C20.8806818,9.1155303 20.7424242,8.70833333 20.7386364,8.19318182 L20.7386364,8.19318182 L20.7386364,3.06818182 L18.3181818,3.06818182 L18.3181818,8.625 C18.3219697,9.30681818 18.4479167,9.89204545 18.6960227,10.3806818 C18.9441288,10.8693182 19.2897727,11.2462121 19.7329545,11.5113636 C20.1761364,11.7765152 20.6893939,11.9090909 21.2727273,11.9090909 Z M30.6875,11.7954545 L30.6875,6.75 C30.6912879,6.375 30.7623106,6.05397727 30.9005682,5.78693182 C31.0388258,5.51988636 31.2320076,5.31628788 31.4801136,5.17613636 C31.7282197,5.03598485 32.0151515,4.96590909 32.3409091,4.96590909 C32.8257576,4.96590909 33.2064394,5.11647727 33.4829545,5.41761364 C33.7594697,5.71875 33.8958333,6.13636364 33.8920455,6.67045455 L33.8920455,6.67045455 L33.8920455,11.7954545 L36.3125,11.7954545 L36.3125,6.23863636 C36.3125,5.56060606 36.1875,4.97632576 35.9375,4.48579545 C35.6875,3.99526515 35.3371212,3.61742424 34.8863636,3.35227273 C34.4356061,3.08712121 33.907197,2.95454545 33.3011364,2.95454545 C32.6534091,2.95454545 32.1022727,3.1032197 31.6477273,3.40056818 C31.1931818,3.69791667 30.8693182,4.10037879 30.6761364,4.60795455 L30.6761364,4.60795455 L30.5738636,4.60795455 L30.5738636,3.06818182 L28.2670455,3.06818182 L28.2670455,11.7954545 L30.6875,11.7954545 Z M42.1590909,11.9659091 C42.9356061,11.9659091 43.6079545,11.8238636 44.1761364,11.5397727 C44.7443182,11.2556818 45.1903409,10.8607955 45.5142045,10.3551136 C45.8380682,9.84943182 46.0189394,9.26325758 46.0568182,8.59659091 L46.0568182,8.59659091 L43.7727273,8.59659091 C43.7272727,8.90340909 43.6316288,9.1657197 43.4857955,9.38352273 C43.3399621,9.60132576 43.15625,9.76704545 42.9346591,9.88068182 C42.7130682,9.99431818 42.4640152,10.0511364 42.1875,10.0511364 C41.8125,10.0511364 41.4848485,9.94886364 41.2045455,9.74431818 C40.9242424,9.53977273 40.7073864,9.24242424 40.5539773,8.85227273 C40.4005682,8.46212121 40.3238636,7.98863636 40.3238636,7.43181818 C40.3238636,6.88257576 40.4015152,6.41477273 40.5568182,6.02840909 C40.7121212,5.64204545 40.9289773,5.34753788 41.2073864,5.14488636 C41.4857955,4.94223485 41.8125,4.84090909 42.1875,4.84090909 C42.6306818,4.84090909 42.9895833,4.97443182 43.2642045,5.24147727 C43.5388258,5.50852273 43.7083333,5.85984848 43.7727273,6.29545455 L43.7727273,6.29545455 L46.0568182,6.29545455 C46.0227273,5.62121212 45.8390152,5.03409091 45.5056818,4.53409091 C45.1723485,4.03409091 44.719697,3.64583333 44.1477273,3.36931818 C43.5757576,3.09280303 42.9090909,2.95454545 42.1477273,2.95454545 C41.2651515,2.95454545 40.5037879,3.14488636 39.8636364,3.52556818 C39.2234848,3.90625 38.7301136,4.43465909 38.3835227,5.11079545 C38.0369318,5.78693182 37.8636364,6.5719697 37.8636364,7.46590909 C37.8636364,8.34848485 38.0350379,9.12878788 38.3778409,9.80681818 C38.7206439,10.4848485 39.2130682,11.0142045 39.8551136,11.3948864 C40.4971591,11.7755682 41.2651515,11.9659091 42.1590909,11.9659091 Z M50.0340909,11.7954545 L50.0340909,6.75 C50.0378788,6.375 50.1107955,6.05397727 50.2528409,5.78693182 C50.3948864,5.51988636 50.5918561,5.31628788 50.84375,5.17613636 C51.0956439,5.03598485 51.3863636,4.96590909 51.7159091,4.96590909 C52.2083333,4.96590909 52.5918561,5.1155303 52.8664773,5.41477273 C53.1410985,5.71401515 53.2765152,6.13257576 53.2727273,6.67045455 L53.2727273,6.67045455 L53.2727273,11.7954545 L55.6931818,11.7954545 L55.6931818,6.23863636 C55.6969697,5.55681818 55.5729167,4.97064394 55.3210227,4.48011364 C55.0691288,3.98958333 54.7168561,3.61268939 54.2642045,3.34943182 C53.811553,3.08617424 53.282197,2.95454545 52.6761364,2.95454545 C52.0132576,2.95454545 51.4621212,3.10132576 51.0227273,3.39488636 C50.5833333,3.68844697 50.2651515,4.09280303 50.0681818,4.60795455 L50.0681818,4.60795455 L49.9659091,4.60795455 L49.9659091,0.159090909 L47.6136364,0.159090909 L47.6136364,11.7954545 L50.0340909,11.7954545 Z" id="Launch"></path>
                    <path d="M64.8806818,11.9659091 C65.3996212,11.9659091 65.9251894,11.8882576 66.4573864,11.7329545 C66.9895833,11.5776515 67.4715909,11.3257576 67.9034091,10.9772727 L67.8576364,11.0114545 L68.5625,11.7954545 L71.0852273,11.7954545 L69.3326364,9.78545455 L69.3406818,9.77545455 L69.3406818,9.77545455 L69.5113636,9.53125 C69.7878788,9.10890152 70.0037879,8.61268939 70.1590909,8.04261364 C70.3143939,7.47253788 70.3920455,6.83143939 70.3920455,6.11931818 L70.3920455,6.11931818 L68.3863636,6.11931818 C68.3863636,6.69886364 68.2878788,7.22727273 68.0909091,7.70454545 C68.0580808,7.78409091 68.0234375,7.86182134 67.9869792,7.93773674 L67.8886364,8.12845455 L65.9706364,5.92945455 L66.6534091,5.4375 C67.0722403,5.13555195 67.4110622,4.79951299 67.6698748,4.42938312 L67.7926136,4.24147727 C68.063447,3.79640152 68.1988636,3.29924242 68.1988636,2.75 C68.1988636,2.25378788 68.0767045,1.79829545 67.8323864,1.38352273 C67.5880682,0.96875 67.2395833,0.635416667 66.7869318,0.383522727 C66.3342803,0.131628788 65.7973485,0.00568181818 65.1761364,0.00568181818 C64.5397727,0.00568181818 63.9829545,0.137310606 63.5056818,0.400568182 C63.0284091,0.663825758 62.6581439,1.02083333 62.3948864,1.47159091 C62.1316288,1.92234848 62,2.42992424 62,2.99431818 C62,3.49431818 62.1003788,3.95738636 62.3011364,4.38352273 C62.5018939,4.80965909 62.7528409,5.21117424 63.0539773,5.58806818 L63.0539773,5.58806818 L63.1136364,5.66245455 L62.8451705,5.85245028 C62.6425189,6.0004143 62.453125,6.14861506 62.2769886,6.29705256 L62.0227273,6.51988636 C61.6969697,6.81723485 61.4431818,7.14204545 61.2613636,7.49431818 C61.0795455,7.84659091 60.9886364,8.25 60.9886364,8.70454545 C60.9886364,9.31439394 61.1448864,9.86647727 61.4573864,10.3607955 C61.7698864,10.8551136 62.217803,11.2462121 62.8011364,11.5340909 C63.3844697,11.8219697 64.0776515,11.9659091 64.8806818,11.9659091 Z M64.8086364,4.54645455 L64.6619318,4.35919744 C64.5085227,4.15571733 64.3806818,3.96022727 64.2784091,3.77272727 C64.1420455,3.52272727 64.0738636,3.27651515 64.0738636,3.03409091 C64.0738636,2.83712121 64.1202652,2.65814394 64.2130682,2.49715909 C64.3058712,2.33617424 64.4356061,2.20549242 64.6022727,2.10511364 C64.7689394,2.00473485 64.9659091,1.95454545 65.1931818,1.95454545 C65.5340909,1.95075758 65.7973485,2.04734848 65.9829545,2.24431818 C66.1685606,2.44128788 66.2613636,2.65530303 66.2613636,2.88636364 C66.2613636,3.12878788 66.1931818,3.3532197 66.0568182,3.55965909 C65.9204545,3.76609848 65.7064394,3.96212121 65.4147727,4.14772727 L65.4147727,4.14772727 L64.8086364,4.54645455 Z M65,10.0227273 C64.6628788,10.0227273 64.3693182,9.9592803 64.1193182,9.83238636 C63.8693182,9.70549242 63.6761364,9.53219697 63.5397727,9.3125 C63.4034091,9.09280303 63.3352273,8.84469697 63.3352273,8.56818182 C63.3352273,8.34469697 63.4119318,8.11079545 63.5653409,7.86647727 C63.71875,7.62215909 63.9564394,7.38257576 64.2784091,7.14772727 L64.2784091,7.14772727 L64.3456364,7.09945455 L66.5506364,9.55545455 L66.4485227,9.61943182 L66.4485227,9.61943182 L66.2130682,9.74147727 C65.813447,9.92897727 65.4090909,10.0227273 65,10.0227273 Z" id="&amp;"></path>
                    <path d="M80.1647727,11.9602273 C81.1117424,11.9602273 81.9214015,11.8172348 82.59375,11.53125 C83.2660985,11.2452652 83.78125,10.8418561 84.1392045,10.3210227 C84.4971591,9.80018939 84.6780303,9.18371212 84.6818182,8.47159091 C84.6780303,7.98674242 84.5899621,7.55681818 84.4176136,7.18181818 C84.2452652,6.80681818 84.0037879,6.48106061 83.6931818,6.20454545 C83.3825758,5.9280303 83.0151515,5.69507576 82.5909091,5.50568182 C82.1666667,5.31628788 81.7007576,5.16477273 81.1931818,5.05113636 L81.1931818,5.05113636 L80.1477273,4.80113636 C79.8939394,4.74431818 79.655303,4.67518939 79.4318182,4.59375 C79.2083333,4.51231061 79.0113636,4.4157197 78.8409091,4.30397727 C78.6704545,4.19223485 78.5369318,4.05871212 78.4403409,3.90340909 C78.34375,3.74810606 78.2992424,3.56628788 78.3068182,3.35795455 C78.3068182,3.10795455 78.3797348,2.8844697 78.5255682,2.6875 C78.6714015,2.4905303 78.8825758,2.33617424 79.1590909,2.22443182 C79.4356061,2.11268939 79.7746212,2.05681818 80.1761364,2.05681818 C80.7670455,2.05681818 81.2348485,2.18371212 81.5795455,2.4375 C81.9242424,2.69128788 82.1193182,3.04734848 82.1647727,3.50568182 L82.1647727,3.50568182 L84.5227273,3.50568182 C84.5113636,2.8125 84.3257576,2.20265152 83.9659091,1.67613636 C83.6060606,1.14962121 83.1032197,0.738636364 82.4573864,0.443181818 C81.811553,0.147727273 81.0568182,4.13002965e-13 80.1931818,4.13002965e-13 C79.344697,4.13002965e-13 78.5871212,0.147727273 77.9204545,0.443181818 C77.2537879,0.738636364 76.7301136,1.14962121 76.3494318,1.67613636 C75.96875,2.20265152 75.780303,2.81818182 75.7840909,3.52272727 C75.780303,4.38257576 76.0625,5.06628788 76.6306818,5.57386364 C77.1988636,6.08143939 77.9734848,6.45454545 78.9545455,6.69318182 L78.9545455,6.69318182 L80.2215909,7.01136364 C80.6458333,7.11363636 81.0047348,7.22727273 81.2982955,7.35227273 C81.5918561,7.47727273 81.8153409,7.62878788 81.96875,7.80681818 C82.1221591,7.98484848 82.1988636,8.20454545 82.1988636,8.46590909 C82.1988636,8.74621212 82.1136364,8.99431818 81.9431818,9.21022727 C81.7727273,9.42613636 81.5331439,9.59469697 81.2244318,9.71590909 C80.9157197,9.83712121 80.5530303,9.89772727 80.1363636,9.89772727 C79.7121212,9.89772727 79.3323864,9.83238636 78.9971591,9.70170455 C78.6619318,9.57102273 78.3948864,9.37594697 78.1960227,9.11647727 C77.9971591,8.85700758 77.8844697,8.53219697 77.8579545,8.14204545 L77.8579545,8.14204545 L75.4772727,8.14204545 C75.4962121,8.97916667 75.6998106,9.68087121 76.0880682,10.2471591 C76.4763258,10.813447 77.0179924,11.2405303 77.7130682,11.5284091 C78.4081439,11.8162879 79.2253788,11.9602273 80.1647727,11.9602273 Z M90.2272727,11.9659091 C91.0037879,11.9659091 91.6761364,11.8238636 92.2443182,11.5397727 C92.8125,11.2556818 93.2585227,10.8607955 93.5823864,10.3551136 C93.90625,9.84943182 94.0871212,9.26325758 94.125,8.59659091 L94.125,8.59659091 L91.8409091,8.59659091 C91.7954545,8.90340909 91.6998106,9.1657197 91.5539773,9.38352273 C91.4081439,9.60132576 91.2244318,9.76704545 91.0028409,9.88068182 C90.78125,9.99431818 90.532197,10.0511364 90.2556818,10.0511364 C89.8806818,10.0511364 89.5530303,9.94886364 89.2727273,9.74431818 C88.9924242,9.53977273 88.7755682,9.24242424 88.6221591,8.85227273 C88.46875,8.46212121 88.3920455,7.98863636 88.3920455,7.43181818 C88.3920455,6.88257576 88.469697,6.41477273 88.625,6.02840909 C88.780303,5.64204545 88.9971591,5.34753788 89.2755682,5.14488636 C89.5539773,4.94223485 89.8806818,4.84090909 90.2556818,4.84090909 C90.6988636,4.84090909 91.0577652,4.97443182 91.3323864,5.24147727 C91.6070076,5.50852273 91.7765152,5.85984848 91.8409091,6.29545455 L91.8409091,6.29545455 L94.125,6.29545455 C94.0909091,5.62121212 93.907197,5.03409091 93.5738636,4.53409091 C93.2405303,4.03409091 92.7878788,3.64583333 92.2159091,3.36931818 C91.6439394,3.09280303 90.9772727,2.95454545 90.2159091,2.95454545 C89.3333333,2.95454545 88.5719697,3.14488636 87.9318182,3.52556818 C87.2916667,3.90625 86.7982955,4.43465909 86.4517045,5.11079545 C86.1051136,5.78693182 85.9318182,6.5719697 85.9318182,7.46590909 C85.9318182,8.34848485 86.1032197,9.12878788 86.4460227,9.80681818 C86.7888258,10.4848485 87.28125,11.0142045 87.9232955,11.3948864 C88.5653409,11.7755682 89.3333333,11.9659091 90.2272727,11.9659091 Z M98.1704545,11.9602273 C98.6022727,11.9602273 98.9829545,11.9024621 99.3125,11.7869318 C99.6420455,11.6714015 99.9242424,11.5104167 100.159091,11.3039773 C100.393939,11.0975379 100.581439,10.8579545 100.721591,10.5852273 L100.721591,10.5852273 L100.789773,10.5852273 L100.789773,11.7954545 L103.085227,11.7954545 L103.085227,5.90909091 C103.085227,5.39015152 102.984848,4.94412879 102.784091,4.57102273 C102.583333,4.19791667 102.309659,3.89204545 101.963068,3.65340909 C101.616477,3.41477273 101.220644,3.23863636 100.775568,3.125 C100.330492,3.01136364 99.8655303,2.95454545 99.3806818,2.95454545 C98.6837121,2.95454545 98.0710227,3.05965909 97.5426136,3.26988636 C97.0142045,3.48011364 96.5833333,3.77935606 96.25,4.16761364 C95.9166667,4.55587121 95.6931818,5.01515152 95.5795455,5.54545455 L95.5795455,5.54545455 L97.8181818,5.72727273 C97.9015152,5.43939394 98.0719697,5.19981061 98.3295455,5.00852273 C98.5871212,4.81723485 98.9337121,4.72159091 99.3693182,4.72159091 C99.782197,4.72159091 100.101326,4.82007576 100.326705,5.01704545 C100.552083,5.21401515 100.664773,5.49242424 100.664773,5.85227273 L100.664773,5.85227273 L100.664773,5.88636364 C100.664773,6.0719697 100.594697,6.21212121 100.454545,6.30681818 C100.314394,6.40151515 100.089015,6.47253788 99.7784091,6.51988636 C99.467803,6.56723485 99.0587121,6.61742424 98.5511364,6.67045455 C98.1193182,6.71212121 97.7073864,6.78409091 97.3153409,6.88636364 C96.9232955,6.98863636 96.5738636,7.14015152 96.2670455,7.34090909 C95.9602273,7.54166667 95.717803,7.80681818 95.5397727,8.13636364 C95.3617424,8.46590909 95.2727273,8.87310606 95.2727273,9.35795455 C95.2727273,9.93371212 95.3986742,10.4138258 95.6505682,10.7982955 C95.9024621,11.1827652 96.2462121,11.4725379 96.6818182,11.6676136 C97.1174242,11.8626894 97.6136364,11.9602273 98.1704545,11.9602273 Z M98.8636364,10.2897727 C98.4924242,10.2897727 98.186553,10.2035985 97.9460227,10.03125 C97.7054924,9.85890152 97.5852273,9.60795455 97.5852273,9.27840909 C97.5852273,9.05113636 97.6439394,8.86079545 97.7613636,8.70738636 C97.8787879,8.55397727 98.0435606,8.43181818 98.2556818,8.34090909 C98.467803,8.25 98.7159091,8.18371212 99,8.14204545 C99.1325758,8.12310606 99.280303,8.10132576 99.4431818,8.07670455 C99.6060606,8.05208333 99.7689394,8.02367424 99.9318182,7.99147727 C100.094697,7.9592803 100.241477,7.92329545 100.372159,7.88352273 C100.502841,7.84375 100.606061,7.79924242 100.681818,7.75 L100.681818,7.75 L100.681818,8.67613636 C100.681818,8.98295455 100.604167,9.25757576 100.448864,9.5 C100.293561,9.74242424 100.079545,9.93465909 99.8068182,10.0767045 C99.5340909,10.21875 99.219697,10.2897727 98.8636364,10.2897727 Z M107.386364,11.7954545 L107.386364,0.159090909 L104.965909,0.159090909 L104.965909,11.7954545 L107.386364,11.7954545 Z M113.295455,11.9659091 C114.015152,11.9659091 114.650568,11.8551136 115.201705,11.6335227 C115.752841,11.4119318 116.203598,11.1013258 116.553977,10.7017045 C116.904356,10.3020833 117.136364,9.83333333 117.25,9.29545455 L117.25,9.29545455 L115.011364,9.14772727 C114.92803,9.36742424 114.806818,9.5530303 114.647727,9.70454545 C114.488636,9.85606061 114.297348,9.96969697 114.073864,10.0454545 C113.850379,10.1212121 113.604167,10.1590909 113.335227,10.1590909 C112.929924,10.1590909 112.579545,10.0738636 112.284091,9.90340909 C111.988636,9.73295455 111.760417,9.4905303 111.599432,9.17613636 C111.438447,8.86174242 111.357955,8.48863636 111.357955,8.05681818 L111.357955,8.05681818 L111.357636,8.05145455 L117.301136,8.05113636 L117.301136,7.38636364 C117.301136,6.64393939 117.19697,5.99526515 116.988636,5.44034091 C116.780303,4.88541667 116.489583,4.42424242 116.116477,4.05681818 C115.743371,3.68939394 115.307765,3.41382576 114.809659,3.23011364 C114.311553,3.04640152 113.774621,2.95454545 113.198864,2.95454545 C112.342803,2.95454545 111.597538,3.14393939 110.963068,3.52272727 C110.328598,3.90151515 109.837121,4.42992424 109.488636,5.10795455 C109.140152,5.78598485 108.965909,6.57386364 108.965909,7.47159091 C108.965909,8.39204545 109.140152,9.18844697 109.488636,9.86079545 C109.837121,10.5331439 110.33428,11.0520833 110.980114,11.4176136 C111.625947,11.7831439 112.397727,11.9659091 113.295455,11.9659091 Z M111.369545,6.42761364 C111.397424,6.16185606 111.475,5.91609848 111.602273,5.69034091 C111.761364,5.40814394 111.982008,5.18276515 112.264205,5.01420455 C112.546402,4.84564394 112.871212,4.76136364 113.238636,4.76136364 C113.590909,4.76136364 113.900568,4.83806818 114.167614,4.99147727 C114.434659,5.14488636 114.643939,5.35606061 114.795455,5.625 C114.94697,5.89393939 115.022727,6.20265152 115.022727,6.55113636 L115.022727,6.55113636 L111.361636,6.55145455 L111.369545,6.42761364 Z" id="Scale"></path>
                </g>
            </g>
        </g>
    </g>
</svg>