<svg width="28" height="28" viewBox="0 0 28 28" fill="none" xmlns="http://www.w3.org/2000/svg">
<path fill-rule="evenodd" clip-rule="evenodd" d="M9.80905 19.991C9.31201 20.488 8.50617 20.488 8.00913 19.991L2.91898 14.9008L2.91823 14.9001C2.7962 14.778 2.70414 14.6374 2.64203 14.4873C2.5798 14.3372 2.54546 14.1727 2.54546 14.0001C2.54546 13.8282 2.57953 13.6643 2.64129 13.5147C2.67191 13.4404 2.70986 13.3684 2.75514 13.2998C2.80174 13.2292 2.8561 13.1623 2.91823 13.1002L2.91898 13.0994L8.00913 8.00925C8.50617 7.51222 9.31201 7.51222 9.80905 8.00925C10.3061 8.50628 10.3061 9.31212 9.80905 9.80916L6.89081 12.7274H24.1818C24.8847 12.7274 25.4545 13.2972 25.4545 14.0001C25.4545 14.703 24.8847 15.2728 24.1818 15.2728H6.89081L9.80905 18.1911C10.3061 18.6881 10.3061 19.4939 9.80905 19.991Z" fill="black"/>
</svg>
