<svg width="197" height="46" viewBox="0 0 197 46" fill="none" xmlns="http://www.w3.org/2000/svg">
<circle cx="23" cy="23" r="23" fill="white"/>
<path d="M28.7939 32.2539C28.2015 32.2539 27.5794 32.1312 26.9277 31.8857C26.276 31.6318 25.6159 31.2806 24.9473 30.832C24.5241 31.0605 24.1009 31.2637 23.6777 31.4414C23.2546 31.6191 22.8229 31.7673 22.3828 31.8857C21.9427 32.0042 21.4857 32.0931 21.0117 32.1523C20.5462 32.2201 20.0596 32.2539 19.5518 32.2539C18.7223 32.2539 17.986 32.1566 17.3428 31.9619C16.6995 31.7673 16.1579 31.5007 15.7178 31.1621C15.2777 30.8151 14.9391 30.4046 14.7021 29.9307C14.4736 29.4482 14.3594 28.9277 14.3594 28.3691C14.3594 27.7428 14.4779 27.1758 14.7148 26.668C14.9603 26.1517 15.2819 25.6777 15.6797 25.2461C16.0859 24.8145 16.5514 24.4209 17.0762 24.0654C17.6009 23.7015 18.1468 23.3545 18.7139 23.0244C18.5192 22.3896 18.3542 21.7633 18.2188 21.1455C18.0918 20.5192 18.0283 19.9056 18.0283 19.3047C18.0283 18.7292 18.1426 18.1663 18.3711 17.6162C18.5996 17.0661 18.9212 16.5794 19.3359 16.1562C19.7591 15.7246 20.2669 15.3776 20.8594 15.1152C21.4603 14.8529 22.1247 14.7217 22.8525 14.7217C23.3434 14.7217 23.8385 14.7894 24.3379 14.9248C24.8372 15.0602 25.2816 15.2718 25.6709 15.5596C26.0687 15.8389 26.3903 16.207 26.6357 16.6641C26.8896 17.1126 27.0166 17.6543 27.0166 18.2891C27.0166 18.873 26.8812 19.4062 26.6104 19.8887C26.348 20.3626 25.9925 20.8027 25.5439 21.209C25.1038 21.6152 24.596 21.9961 24.0205 22.3516C23.4535 22.6986 22.8695 23.0371 22.2686 23.3672C22.5986 24.1035 23.0133 24.8525 23.5127 25.6143C24.012 26.376 24.541 27.0827 25.0996 27.7344C25.5312 27.3704 25.9333 26.9769 26.3057 26.5537C26.6865 26.1305 27.0293 25.7074 27.334 25.2842C27.6471 24.861 27.918 24.459 28.1465 24.0781C28.375 23.6888 28.5612 23.3503 28.7051 23.0625L30.3174 24.1289C29.6995 25.0938 29.0859 26.012 28.4766 26.8838C27.8757 27.7555 27.2536 28.5215 26.6104 29.1816C27.0589 29.5117 27.5117 29.7699 27.9688 29.9561C28.4342 30.1423 28.8997 30.2354 29.3652 30.2354C29.7799 30.2354 30.1354 30.1846 30.4316 30.083C30.7363 29.973 30.9987 29.8249 31.2188 29.6387C31.4388 29.444 31.625 29.2155 31.7773 28.9531C31.9382 28.6823 32.0905 28.3903 32.2344 28.0771L33.3516 28.585C32.9538 29.8799 32.3783 30.8151 31.625 31.3906C30.8802 31.9661 29.9365 32.2539 28.7939 32.2539ZM20.2627 30.2354C20.779 30.2354 21.2741 30.1592 21.748 30.0068C22.222 29.8545 22.6833 29.6429 23.1318 29.3721H23.1826C22.5648 28.7881 21.9723 28.1364 21.4053 27.417C20.8382 26.6976 20.3177 25.9359 19.8438 25.1318C19.0736 25.5635 18.4938 26.0078 18.1045 26.4648C17.7152 26.9134 17.5205 27.3958 17.5205 27.9121C17.5205 28.2168 17.5713 28.5088 17.6729 28.7881C17.7744 29.0674 17.9352 29.3171 18.1553 29.5371C18.3753 29.7487 18.6589 29.918 19.0059 30.0449C19.3529 30.1719 19.7718 30.2354 20.2627 30.2354ZM21.0879 18.9873C21.0879 19.6221 21.2106 20.3669 21.4561 21.2217C22.4294 20.7393 23.1868 20.2314 23.7285 19.6982C24.2786 19.165 24.5537 18.5768 24.5537 17.9336C24.5537 17.6289 24.5156 17.375 24.4395 17.1719C24.3633 16.9688 24.2533 16.8037 24.1094 16.6768C23.974 16.5498 23.8132 16.4609 23.627 16.4102C23.4408 16.3594 23.2334 16.334 23.0049 16.334C22.734 16.334 22.4801 16.4017 22.2432 16.5371C22.0146 16.6725 21.8158 16.8587 21.6465 17.0957C21.4772 17.3242 21.3418 17.6035 21.2402 17.9336C21.1387 18.2552 21.0879 18.6064 21.0879 18.9873Z" fill="black"/>
<path d="M60.0114 28H67.4602V25.9716H62.4716V16.3636H60.0114V28ZM71.5327 28.1648C72.8224 28.1648 73.6577 27.6023 74.0838 26.7898H74.152V28H76.4474V22.1136C76.4474 20.0341 74.6861 19.1591 72.7429 19.1591C70.652 19.1591 69.277 20.1591 68.9418 21.75L71.1804 21.9318C71.3452 21.3523 71.8622 20.9261 72.7315 20.9261C73.5554 20.9261 74.027 21.3409 74.027 22.0568V22.0909C74.027 22.6534 73.4304 22.7273 71.9134 22.875C70.1861 23.0341 68.6349 23.6136 68.6349 25.5625C68.6349 27.2898 69.8679 28.1648 71.5327 28.1648ZM72.2259 26.4943C71.4815 26.4943 70.9474 26.1477 70.9474 25.483C70.9474 24.8011 71.5099 24.4659 72.3622 24.3466C72.8906 24.2727 73.7543 24.1477 74.044 23.9545V24.8807C74.044 25.7955 73.2884 26.4943 72.2259 26.4943ZM83.9219 24.2841C83.9276 25.4545 83.1264 26.0682 82.2571 26.0682C81.3423 26.0682 80.7514 25.4261 80.7457 24.3977V19.2727H78.3253V24.8295C78.331 26.8693 79.5241 28.1136 81.2798 28.1136C82.5923 28.1136 83.5355 27.4375 83.9276 26.4148H84.0185V28H86.3423V19.2727H83.9219V24.2841ZM90.6989 22.9545C90.7045 21.8295 91.375 21.1705 92.3523 21.1705C93.3239 21.1705 93.9091 21.8068 93.9034 22.875V28H96.3239V22.4432C96.3239 20.4091 95.1307 19.1591 93.3125 19.1591C92.017 19.1591 91.0795 19.7955 90.6875 20.8125H90.5852V19.2727H88.2784V28H90.6989V22.9545ZM102.175 28.1705C104.499 28.1705 105.959 26.8068 106.072 24.8011H103.788C103.646 25.733 103.033 26.2557 102.203 26.2557C101.072 26.2557 100.339 25.3068 100.339 23.6364C100.339 21.9886 101.078 21.0455 102.203 21.0455C103.089 21.0455 103.658 21.6307 103.788 22.5H106.072C105.97 20.483 104.442 19.1591 102.163 19.1591C99.5156 19.1591 97.8793 20.9943 97.8793 23.6705C97.8793 26.3239 99.4872 28.1705 102.175 28.1705ZM110.043 22.9545C110.048 21.8295 110.736 21.1705 111.724 21.1705C112.707 21.1705 113.287 21.8011 113.281 22.875V28H115.702V22.4432C115.707 20.3977 114.503 19.1591 112.685 19.1591C111.361 19.1591 110.474 19.7841 110.077 20.8125H109.974V16.3636H107.622V28H110.043V22.9545ZM123.798 28.1648C125.088 28.1648 125.923 27.6023 126.349 26.7898H126.418V28H128.713V22.1136C128.713 20.0341 126.952 19.1591 125.009 19.1591C122.918 19.1591 121.543 20.1591 121.207 21.75L123.446 21.9318C123.611 21.3523 124.128 20.9261 124.997 20.9261C125.821 20.9261 126.293 21.3409 126.293 22.0568V22.0909C126.293 22.6534 125.696 22.7273 124.179 22.875C122.452 23.0341 120.901 23.6136 120.901 25.5625C120.901 27.2898 122.134 28.1648 123.798 28.1648ZM124.491 26.4943C123.747 26.4943 123.213 26.1477 123.213 25.483C123.213 24.8011 123.776 24.4659 124.628 24.3466C125.156 24.2727 126.02 24.1477 126.31 23.9545V24.8807C126.31 25.7955 125.554 26.4943 124.491 26.4943ZM133.011 22.9545C133.017 21.8295 133.688 21.1705 134.665 21.1705C135.636 21.1705 136.222 21.8068 136.216 22.875V28H138.636V22.4432C138.636 20.4091 137.443 19.1591 135.625 19.1591C134.33 19.1591 133.392 19.7955 133 20.8125H132.898V19.2727H130.591V28H133.011V22.9545ZM143.76 28.142C145.169 28.142 145.902 27.3295 146.237 26.6023H146.339V28H148.726V16.3636H146.311V20.7386H146.237C145.913 20.0284 145.214 19.1591 143.754 19.1591C141.839 19.1591 140.22 20.6477 140.22 23.6477C140.22 26.5682 141.771 28.142 143.76 28.142ZM144.527 26.2159C143.339 26.2159 142.692 25.1591 142.692 23.6364C142.692 22.125 143.328 21.0852 144.527 21.0852C145.703 21.0852 146.362 22.0795 146.362 23.6364C146.362 25.1932 145.692 26.2159 144.527 26.2159ZM160.777 19.7102H163.135C163.101 17.6364 161.396 16.2045 158.805 16.2045C156.254 16.2045 154.385 17.6136 154.396 19.7273C154.391 21.4432 155.601 22.4261 157.567 22.8977L158.834 23.2159C160.101 23.5227 160.805 23.8864 160.811 24.6705C160.805 25.5227 159.999 26.1023 158.749 26.1023C157.47 26.1023 156.55 25.5114 156.47 24.3466H154.089C154.152 26.8636 155.953 28.1648 158.777 28.1648C161.618 28.1648 163.288 26.8068 163.294 24.6761C163.288 22.7386 161.828 21.7102 159.805 21.2557L158.76 21.0057C157.749 20.7727 156.902 20.3977 156.919 19.5625C156.919 18.8125 157.584 18.2614 158.788 18.2614C159.964 18.2614 160.686 18.7955 160.777 19.7102ZM168.847 28.1705C171.17 28.1705 172.631 26.8068 172.744 24.8011H170.46C170.318 25.733 169.705 26.2557 168.875 26.2557C167.744 26.2557 167.011 25.3068 167.011 23.6364C167.011 21.9886 167.75 21.0455 168.875 21.0455C169.761 21.0455 170.33 21.6307 170.46 22.5H172.744C172.642 20.483 171.114 19.1591 168.835 19.1591C166.188 19.1591 164.551 20.9943 164.551 23.6705C164.551 26.3239 166.159 28.1705 168.847 28.1705ZM176.783 28.1648C178.072 28.1648 178.908 27.6023 179.334 26.7898H179.402V28H181.697V22.1136C181.697 20.0341 179.936 19.1591 177.993 19.1591C175.902 19.1591 174.527 20.1591 174.192 21.75L176.43 21.9318C176.595 21.3523 177.112 20.9261 177.982 20.9261C178.805 20.9261 179.277 21.3409 179.277 22.0568V22.0909C179.277 22.6534 178.68 22.7273 177.163 22.875C175.436 23.0341 173.885 23.6136 173.885 25.5625C173.885 27.2898 175.118 28.1648 176.783 28.1648ZM177.476 26.4943C176.732 26.4943 176.197 26.1477 176.197 25.483C176.197 24.8011 176.76 24.4659 177.612 24.3466C178.141 24.2727 179.004 24.1477 179.294 23.9545V24.8807C179.294 25.7955 178.538 26.4943 177.476 26.4943ZM185.996 16.3636H183.575V28H185.996V16.3636ZM191.912 28.1705C194.071 28.1705 195.526 27.1193 195.866 25.5L193.628 25.3523C193.384 26.017 192.759 26.3636 191.952 26.3636C190.741 26.3636 189.974 25.5625 189.974 24.2614V24.2557H195.918V23.5909C195.918 20.625 194.122 19.1591 191.815 19.1591C189.247 19.1591 187.582 20.983 187.582 23.6761C187.582 26.4432 189.224 28.1705 191.912 28.1705ZM189.974 22.7557C190.026 21.7614 190.781 20.9659 191.855 20.9659C192.906 20.9659 193.634 21.7159 193.639 22.7557H189.974Z" fill="white"/>
</svg>
