<svg width="28" height="28" viewBox="0 0 28 28" fill="none" xmlns="http://www.w3.org/2000/svg">
<path fill-rule="evenodd" clip-rule="evenodd" d="M18.191 8.00925C18.688 7.51222 19.4939 7.51222 19.9909 8.00925L25.081 13.0994L25.0818 13.1002C25.2038 13.2222 25.2959 13.3628 25.358 13.5129C25.4202 13.663 25.4546 13.8275 25.4546 14.0001C25.4546 14.172 25.4205 14.3359 25.3587 14.4855C25.3281 14.5598 25.2901 14.6318 25.2448 14.7004C25.1982 14.771 25.1439 14.8379 25.0818 14.9001L25.081 14.9008L19.9909 19.991C19.4939 20.488 18.688 20.488 18.191 19.991C17.694 19.4939 17.694 18.6881 18.191 18.1911L21.1092 15.2728H3.8182C3.11529 15.2728 2.54547 14.703 2.54547 14.0001C2.54547 13.2972 3.11529 12.7274 3.8182 12.7274H21.1092L18.191 9.80916C17.694 9.31212 17.694 8.50628 18.191 8.00925Z" fill="black"/>
</svg>
