<svg width="58" height="58" viewBox="0 0 58 58" fill="none" xmlns="http://www.w3.org/2000/svg">
<path opacity="0.4" fill-rule="evenodd" clip-rule="evenodd" d="M41.5 33.1667C40.6792 33.1667 39.8665 33.005 39.1082 32.6909C38.3499 32.3768 37.6609 31.9165 37.0806 31.3361C36.5002 30.7557 36.0398 30.0667 35.7257 29.3084C35.4116 28.5502 35.25 27.7374 35.25 26.9167C35.25 26.0959 35.4116 25.2832 35.7257 24.5249C36.0398 23.7666 36.5002 23.0776 37.0806 22.4972C37.6609 21.9169 38.3499 21.4565 39.1082 21.1424C39.8665 20.8283 40.6792 20.6667 41.5 20.6667C43.1576 20.6667 44.7473 21.3251 45.9194 22.4972C47.0915 23.6694 47.75 25.2591 47.75 26.9167C47.75 28.5743 47.0915 30.164 45.9194 31.3361C44.7473 32.5082 43.1576 33.1667 41.5 33.1667ZM22.75 26.9167C20.5399 26.9167 18.4202 26.0387 16.8574 24.4759C15.2946 22.9131 14.4167 20.7935 14.4167 18.5833C14.4167 16.3732 15.2946 14.2536 16.8574 12.6908C18.4202 11.128 20.5399 10.25 22.75 10.25C24.9601 10.25 27.0797 11.128 28.6425 12.6908C30.2053 14.2536 31.0833 16.3732 31.0833 18.5833C31.0833 20.7935 30.2053 22.9131 28.6425 24.4759C27.0797 26.0387 24.9601 26.9167 22.75 26.9167Z" fill="url(#paint0_linear)"/>
<path fill-rule="evenodd" clip-rule="evenodd" d="M40.6684 35.25C47.7663 35.3292 53.56 38.9167 53.9955 46.5C54.0142 46.8063 53.9955 47.75 52.8663 47.75H44.833C44.833 43.0625 43.283 38.7334 40.6684 35.25ZM4.00171 46.0834C4.80796 36.1375 12.8746 31.0834 22.7142 31.0834C32.6892 31.0834 40.885 35.8605 41.4955 46.0834C41.5205 46.4896 41.4955 47.75 39.9309 47.75H5.51421C4.99338 47.75 3.95796 46.625 4.00171 46.0834Z" fill="#DFDFDF"/>
<defs>
<linearGradient id="paint0_linear" x1="31.0833" y1="10.25" x2="33.1474" y2="43.2242" gradientUnits="userSpaceOnUse">
<stop stop-color="white"/>
<stop offset="1" stop-color="white" stop-opacity="0.49"/>
</linearGradient>
</defs>
</svg>
