<svg width="58" height="58" viewBox="0 0 58 58" fill="none" xmlns="http://www.w3.org/2000/svg">
<path opacity="0.4" fill-rule="evenodd" clip-rule="evenodd" d="M12.0833 36.25L7.25 51.9583L22.9583 47.125L12.0833 36.25Z" fill="url(#paint0_linear)"/>
<path fill-rule="evenodd" clip-rule="evenodd" d="M32.625 50.75C29.6101 50.75 26.6247 50.1561 23.8392 49.0024C21.0538 47.8486 18.5229 46.1575 16.391 44.0256C14.2591 41.8938 12.5681 39.3629 11.4143 36.5774C10.2605 33.792 9.66669 30.8066 9.66669 27.7916C9.66669 24.7767 10.2605 21.7913 11.4143 19.0059C12.5681 16.2204 14.2591 13.6895 16.391 11.5577C18.5229 9.42577 21.0538 7.73468 23.8392 6.58091C26.6247 5.42715 29.6101 4.83331 32.625 4.83331C38.7139 4.83331 44.5535 7.25213 48.859 11.5577C53.1645 15.8632 55.5834 21.7027 55.5834 27.7916C55.5834 33.8806 53.1645 39.7201 48.859 44.0256C44.5535 48.3312 38.7139 50.75 32.625 50.75ZM21.75 19.3333C21.1091 19.3333 20.4944 19.5879 20.0412 20.0411C19.588 20.4944 19.3334 21.109 19.3334 21.75C19.3334 22.3909 19.588 23.0056 20.0412 23.4588C20.4944 23.912 21.1091 24.1666 21.75 24.1666H43.5C44.141 24.1666 44.7556 23.912 45.2089 23.4588C45.6621 23.0056 45.9167 22.3909 45.9167 21.75C45.9167 21.109 45.6621 20.4944 45.2089 20.0411C44.7556 19.5879 44.141 19.3333 43.5 19.3333H21.75ZM21.75 29C21.1091 29 20.4944 29.2546 20.0412 29.7078C19.588 30.161 19.3334 30.7757 19.3334 31.4166C19.3334 32.0576 19.588 32.6723 20.0412 33.1255C20.4944 33.5787 21.1091 33.8333 21.75 33.8333H33.8334C34.4743 33.8333 35.089 33.5787 35.5422 33.1255C35.9954 32.6723 36.25 32.0576 36.25 31.4166C36.25 30.7757 35.9954 30.161 35.5422 29.7078C35.089 29.2546 34.4743 29 33.8334 29H21.75Z" fill="#DFDFDF"/>
<defs>
<linearGradient id="paint0_linear" x1="15.1042" y1="36.25" x2="17.1532" y2="58.7543" gradientUnits="userSpaceOnUse">
<stop stop-color="white"/>
<stop offset="1" stop-color="white" stop-opacity="0.49"/>
</linearGradient>
</defs>
</svg>
