<svg width="58" height="55" viewBox="0 0 58 55" fill="none" xmlns="http://www.w3.org/2000/svg">
<path opacity="0.4" d="M48.3333 4.25H9.66668C6.9973 4.25 4.83334 6.41396 4.83334 9.08333V42.9167C4.83334 45.586 6.9973 47.75 9.66668 47.75H48.3333C51.0027 47.75 53.1667 45.586 53.1667 42.9167V9.08333C53.1667 6.41396 51.0027 4.25 48.3333 4.25Z" fill="url(#paint0_linear)"/>
<path fill-rule="evenodd" clip-rule="evenodd" d="M24.0434 29.1804C23.8831 29.6618 23.5753 30.0805 23.1636 30.3772C22.752 30.6739 22.2574 30.8335 21.75 30.8334H12.0833C11.4424 30.8334 10.8277 30.5788 10.3745 30.1256C9.92127 29.6723 9.66666 29.0577 9.66666 28.4167C9.66666 27.7758 9.92127 27.1611 10.3745 26.7079C10.8277 26.2547 11.4424 26.0001 12.0833 26.0001H20.01L24.2899 13.1531C25.056 10.8572 28.3402 10.9853 28.9299 13.3295L33.3862 31.1596L35.2954 27.3365C35.4961 26.9347 35.8049 26.5969 36.1869 26.3608C36.569 26.1248 37.0092 25.9998 37.4583 26.0001H45.9166C46.5576 26.0001 47.1723 26.2547 47.6255 26.7079C48.0787 27.1611 48.3333 27.7758 48.3333 28.4167C48.3333 29.0577 48.0787 29.6723 47.6255 30.1256C47.1723 30.5788 46.5576 30.8334 45.9166 30.8334H38.9518L34.7855 39.1636C33.7826 41.1695 30.8246 40.8456 30.2808 38.6706L26.2522 22.5539L24.0434 29.1804Z" fill="#E7E7E7"/>
<path d="M45.9167 13.9167C47.2514 13.9167 48.3333 12.8347 48.3333 11.5C48.3333 10.1654 47.2514 9.08337 45.9167 9.08337C44.582 9.08337 43.5 10.1654 43.5 11.5C43.5 12.8347 44.582 13.9167 45.9167 13.9167Z" fill="black"/>
<defs>
<linearGradient id="paint0_linear" x1="29" y1="4.25" x2="34.1147" y2="66.6672" gradientUnits="userSpaceOnUse">
<stop stop-color="white"/>
<stop offset="1" stop-color="white" stop-opacity="0.49"/>
</linearGradient>
</defs>
</svg>
