<svg width="58" height="58" viewBox="0 0 58 58" fill="none" xmlns="http://www.w3.org/2000/svg">
<path opacity="0.4" fill-rule="evenodd" clip-rule="evenodd" d="M9.67151 29.4833L31.4167 33.8333V9.81647C36.2918 10.4368 40.7478 12.8901 43.879 16.6779C47.0102 20.4657 48.5816 25.3036 48.2738 30.2084C47.9661 35.1131 45.8023 39.7167 42.2222 43.0834C38.6421 46.4501 33.9144 48.3272 29 48.3333C23.956 48.3336 19.1116 46.3626 15.5005 42.8409C11.8894 39.3193 9.79761 34.5258 9.67151 29.4833Z" fill="url(#paint0_linear)"/>
<path fill-rule="evenodd" clip-rule="evenodd" d="M7.39499 24.1957C7.97773 19.5174 10.2496 15.2133 13.7832 12.0926C17.3169 8.97195 21.8689 7.24979 26.5833 7.25V28.0333L7.39499 24.1957Z" fill="#DFDFDF"/>
<defs>
<linearGradient id="paint0_linear" x1="28.9917" y1="9.81647" x2="34" y2="65" gradientUnits="userSpaceOnUse">
<stop stop-color="white"/>
<stop offset="1" stop-color="white" stop-opacity="0.49"/>
</linearGradient>
</defs>
</svg>
