<svg width="58" height="55" viewBox="0 0 58 55" fill="none" xmlns="http://www.w3.org/2000/svg">
<path opacity="0.4" d="M9 35C9 33.3431 10.3431 32 12 32H46C47.6569 32 49 33.3431 49 35V42C49 43.6569 47.6569 45 46 45H12C10.3431 45 9 43.6569 9 42V35Z" fill="url(#paint0_linear)"/>
<path fill-rule="evenodd" clip-rule="evenodd" d="M10 4C7.23858 4 5 6.23858 5 9V35C5 37.7614 7.23858 40 10 40H48C50.7614 40 53 37.7614 53 35V9C53 6.23858 50.7614 4 48 4H10ZM24.0254 23.6523C24.5647 23.6523 25.002 23.2151 25.002 22.6758C25.002 22.1364 24.5647 21.6992 24.0254 21.6992H19.1621V17.7734H24.9238C25.474 17.7734 25.9199 17.3275 25.9199 16.7773C25.9199 16.2272 25.474 15.7812 24.9238 15.7812H18.2295C17.38 15.7812 16.6914 16.4699 16.6914 17.3193V28.4505C16.6914 29.3063 17.3851 30 18.2409 30H25.002C25.5467 30 25.9883 29.5584 25.9883 29.0137C25.9883 28.4689 25.5467 28.0273 25.002 28.0273H19.1621V23.6523H24.0254ZM38.6881 30C39.5669 30 40.2793 29.2876 40.2793 28.4088V17.0068C40.2793 16.33 39.7306 15.7812 39.0537 15.7812C38.3768 15.7812 37.8281 16.33 37.8281 17.0068V25.9082L31.9384 16.5263C31.6474 16.0627 31.1384 15.7812 30.591 15.7812C29.7123 15.7812 29 16.4936 29 17.3722V28.7646C29 29.4469 29.5531 30 30.2354 30C30.9176 30 31.4707 29.4469 31.4707 28.7646V19.9121L37.3407 29.2553C37.6319 29.7187 38.1408 30 38.6881 30Z" fill="#CBCBCB"/>
<defs>
<linearGradient id="paint0_linear" x1="29" y1="32" x2="29.5552" y2="50.7622" gradientUnits="userSpaceOnUse">
<stop stop-color="white"/>
<stop offset="1" stop-color="white" stop-opacity="0.49"/>
</linearGradient>
</defs>
</svg>
