<svg width="58" height="58" viewBox="0 0 58 58" fill="none" xmlns="http://www.w3.org/2000/svg">
<path opacity="0.4" fill-rule="evenodd" clip-rule="evenodd" d="M19.3334 7.25V8.45833C19.3334 9.41974 19.7153 10.3418 20.3951 11.0216C21.0749 11.7014 21.9969 12.0833 22.9584 12.0833H35.0417C36.0031 12.0833 36.9251 11.7014 37.6049 11.0216C38.2848 10.3418 38.6667 9.41974 38.6667 8.45833V7.25H43.5C44.7819 7.25 46.0113 7.75922 46.9177 8.66565C47.8241 9.57208 48.3334 10.8015 48.3334 12.0833V50.75C48.3334 52.0319 47.8241 53.2613 46.9177 54.1677C46.0113 55.0741 44.7819 55.5833 43.5 55.5833H14.5C13.2181 55.5833 11.9888 55.0741 11.0823 54.1677C10.1759 53.2613 9.66669 52.0319 9.66669 50.75V12.0833C9.66669 10.8015 10.1759 9.57208 11.0823 8.66565C11.9888 7.75922 13.2181 7.25 14.5 7.25H19.3334Z" fill="url(#paint0_linear)"/>
<path fill-rule="evenodd" clip-rule="evenodd" d="M26.2813 38.0625C25.9789 38.0597 25.6801 37.997 25.4022 37.8779C25.1243 37.7589 24.8727 37.5859 24.6621 37.3689L20.0269 32.7362C19.8071 32.5271 19.6321 32.2756 19.5125 31.9969C19.393 31.7181 19.3313 31.4179 19.3313 31.1146C19.3313 30.8113 19.393 30.5111 19.5125 30.2324C19.6321 29.9536 19.8071 29.7021 20.0269 29.493C20.9549 28.5674 22.4605 28.5674 23.2701 29.493L26.2813 32.5042L33.9228 24.8627C34.1318 24.6429 34.3833 24.4679 34.6621 24.3483C34.9409 24.2287 35.241 24.167 35.5444 24.167C35.8477 24.167 36.1478 24.2287 36.4266 24.3483C36.7054 24.4679 36.9569 24.6429 37.1659 24.8627C37.3854 25.0717 37.56 25.3231 37.6794 25.6016C37.7988 25.8802 37.8603 26.18 37.8603 26.4831C37.8603 26.7861 37.7988 27.086 37.6794 27.3645C37.56 27.643 37.3854 27.8944 37.1659 28.1034L27.9029 37.3689C27.692 37.5862 27.44 37.7593 27.1616 37.8784C26.8833 37.9975 26.584 38.06 26.2813 38.0625ZM26.5834 4.83335C26.5834 4.19241 26.838 3.57773 27.2912 3.12451C27.7444 2.6713 28.3591 2.41669 29 2.41669C29.641 2.41669 30.2556 2.6713 30.7089 3.12451C31.1621 3.57773 31.4167 4.19241 31.4167 4.83335H35.0417C35.3622 4.83335 35.6695 4.96066 35.8961 5.18727C36.1227 5.41387 36.25 5.72122 36.25 6.04169V8.45835C36.25 8.77882 36.1227 9.08617 35.8961 9.31277C35.6695 9.53938 35.3622 9.66669 35.0417 9.66669H22.9584C22.6379 9.66669 22.3305 9.53938 22.1039 9.31277C21.8773 9.08617 21.75 8.77882 21.75 8.45835V6.04169C21.75 5.72122 21.8773 5.41387 22.1039 5.18727C22.3305 4.96066 22.6379 4.83335 22.9584 4.83335H26.5834Z" fill="#DFDFDF"/>
<defs>
<linearGradient id="paint0_linear" x1="29" y1="7.25" x2="36.8445" y2="76.1754" gradientUnits="userSpaceOnUse">
<stop stop-color="white"/>
<stop offset="1" stop-color="white" stop-opacity="0.49"/>
</linearGradient>
</defs>
</svg>
